<svg id="Capa_1" enable-background="new 0 0 497 497" height="512" viewBox="0 0 497 497" width="512" xmlns="http://www.w3.org/2000/svg"><g><g><path d="m497 248.5c0-137.243-111.257-248.5-248.5-248.5-61.665 0-118.084 22.461-161.522 59.648 0 0-12.568 13.28-19.095 20.32-41.1 44.332-62.809 103.312-62.809 168.532 0 137.243 106.183 244.191 243.426 244.191 66.181 0 126.04-21.936 170.574-64.117 3.075-2.912 9.277-8.593 9.277-8.593 42.534-44.596 68.649-104.989 68.649-171.481z" fill="#f8f7f7"/><path d="m429.36 418.91c-45.31 48.08-109.58 78.09-180.86 78.09-137.24 0-248.5-111.26-248.5-248.5 0-75.89 34.02-143.83 87.64-189.41-41.94 44.5-67.64 104.45-67.64 170.41 0 137.24 111.26 248.5 248.5 248.5 61.35 0 117.51-22.24 160.86-59.09z" fill="#e8e8e8"/><path d="m430 248.5c0-100.24-81.26-181.5-181.5-181.5-43.6 0-83.609 15.373-114.902 40.995 0 0-2.193 2.325-3.48 3.441-38.4 33.279-56.958 82.262-56.958 137.064 0 100.24 75.101 176.787 175.34 176.787 50.123 0 95.027-15.918 127.872-48.766 2.047-2.047 6.465-5.972 6.465-5.972 29.303-32.233 47.163-75.055 47.163-122.049z" fill="#e8e8e8"/><path d="m383.16 370.2c-33.22 36.72-81.24 59.8-134.66 59.8-100.24 0-181.5-81.26-181.5-181.5 0-56.75 26.05-107.42 66.84-140.7-29.11 32.19-46.84 74.88-46.84 121.7 0 100.24 81.26 181.5 181.5 181.5 43.49 0 83.41-15.3 114.66-40.8z" fill="#d8d8d8"/></g><g><g><g><path d="m352.015 325.617c-16.234-115.508-67.683-159.239-165.409-221.074-7.746-4.901-12.929-10.99-14.585-19.404-.419-2.127-2.023-6.028-2.023-6.028.027-5.133 1.266-10.326 3.824-15.136l.309-.58c8.872-16.686 30.079-22.373 46.047-12.266.211.134.423.268.634.401 0 0 2.71 4.384 4.859 5.759 109.468 70.07 172.894 127.352 191.422 259.183z" fill="#ffa95f"/></g><path d="m417.09 316.47c-18.88-134.42-82.749-193.012-196.279-264.942l-24.623 38.664c-1.162 1.824-3.557 2.398-5.415 1.291-4.488-2.674-12.583-7.494-20.775-12.374-.06 10.82 5.272 21.37 14.972 27.51 97.73 61.83 150.81 103.49 167.05 219l17.32-2.44c-.05-.199-.098-.393-.147-.591z" fill="#ff8b5a"/><path d="m328.138 320.606c-20.583-69.733-63.512-129.915-122-173.106-5.931-4.38-9.33-9.277-9.894-16.149-.279-3.399-.02-10.183-.02-10.183.624-1.796 1.464-3.545 2.526-5.212 12.023-18.872 24.045-37.744 36.068-56.615 8.607-13.51 26.854-16.972 39.777-7.505 7.722 5.657 15.245 11.544 22.56 17.649 0 0 1.184 5.295 3.197 7.036 57.195 49.468 101.375 110.327 128.17 181.021.731 1.929 4.658 6.208 4.658 6.208 3.234 8.961 6.193 18.043 8.868 27.233 4.477 15.381-5.017 31.344-20.657 34.811-21.846 4.843-43.691 9.686-65.537 14.529-2.697.598-5.398.733-8.014.455 0 0-3.986-1.836-5.979-2.598-6.963-2.661-11.47-9.942-13.723-17.574z" fill="#ffa95f"/><path d="m433.18 263.75c-27.31-75.65-74.266-142.735-136.026-194.265-.53.54-1.054 1.095-1.554 1.665l-64.748 73.186c-1.421 1.606-3.848 1.797-5.518.453-3.133-2.521-6.309-4.991-9.534-7.399-.31-.23-11.405-9.442-19.575-16.222-3.49 10.01-.255 21.462 8.615 28.012 58.48 43.19 101.29 104.33 121.87 174.06 2.89 9.82 11.44 16.519 21.13 17.538-2.63-9.99-6.1-23.138-6.18-23.418-1.194-3.983-2.468-7.939-3.808-11.871-.692-2.029.318-4.244 2.312-5.03l90.916-35.819c.71-.28 1.41-.57 2.1-.89z" fill="#ff8b5a"/><path d="m283.665 280.668c-13.708-28.153-31.781-53.964-53.548-76.474-9.07-9.38-9.55-24.093-.904-33.866 26.122-29.526 52.245-59.052 78.367-88.578 11.194-12.653 30.765-13.206 42.648-1.197 5.141 5.196 10.155 10.506 15.04 15.927 0 0-.892 3.57-.024 4.551 24.231 27.347 45.754 56.325 63.644 88.149.149.265 1.673.807 1.673.807 3.674 6.576 7.14 13.272 10.369 20.101 7.221 15.273.008 33.475-15.711 39.666-36.68 14.449-73.359 28.897-110.039 43.346-12.14 4.783-25.803-.701-31.515-12.432z" fill="#ffa95f"/><path d="m430.561 189.988c-1.34.73-2.541 1.272-3.971 1.842-16.33 6.47-35.84 13.87-49.33 18.95-5.07 1.91-10.38 2.87-15.79 2.87-14.63 0-28.38-7.15-36.77-19.14-11.76-16.79-10.65-39.39 2.69-54.95 9.37-10.93 22.99-26.71 34.68-39.88 1.01-1.14 2.078-2.209 3.198-3.199 25.551 28.35 47.353 59.827 65.293 93.507z" fill="#ff8b5a"/><path d="m337.807 185.335c-7.564-10.803-6.854-25.352 1.731-35.363 9.852-11.488 23.097-26.83 34.496-39.671 8.914-10.042 24.548-10.106 33.599-.188 9.744 10.676 18.041 22.526 24.741 35.334 6.224 11.898.817 26.567-11.668 31.509-15.965 6.319-34.912 13.519-49.077 18.847-12.343 4.643-26.258.335-33.822-10.468z" fill="#ffa95f"/></g><g><g><path d="m362.33 375.596c-79.733-62.353-181.512-90.91-281.904-78-9.197 1.183-17.194-.844-23.67-6.628-1.727-1.543-5.583-4.713-5.583-4.713-2.449-3.441-4.235-7.43-5.136-11.803-.042-.205-.085-.411-.127-.616-3.677-17.832 8.673-34.902 26.733-37.21 2.868-.366 5.737-.704 8.606-1.014 0 0 3.118 1.042 4.464.909 109.379-10.783 216.646 18.621 304.809 84.255.762.567 4.233 1.493 4.233 1.493 1.885 1.422 3.759 2.862 5.624 4.317 14.351 11.204 16.256 32.187 3.991 45.643-.141.155-.283.31-.424.465-3.379 3.707-7.47 6.428-11.886 8.123 0 0-3.162.323-4.73.661-8.685 1.87-17.53-.041-25-5.882z" fill="#ffc269"/></g><path d="m394.754 322.269c-89.653-67.72-201.846-98.7-313.504-86.649.05.64.11 1.29.19 1.93l4.967 39.615c.344 2.747-1.608 5.261-4.359 5.582-1.261.147-2.521.301-3.778.463-.3.04-13.557 1.535-27.097 3.045 6.43 9.06 17.487 14.315 29.137 12.825 100.39-12.91 201.86 14.94 281.6 77.29 8.82 6.9 20.289 8.228 30.149 4.448-10.12-8.49-18.949-15.988-20.299-17.048-.602-.471-1.206-.939-1.812-1.406-2.192-1.688-2.592-4.836-.894-7.021z" fill="#ffa95f"/><path d="m313.436 364.521c-54.633-36.718-118.724-54.745-184.447-51.064-7.532.422-14.032-1.23-18.404-6.798-1.313-1.672-4.284-5.256-4.284-5.256-.695-1.744-1.181-3.602-1.424-5.544-2.522-20.1-5.044-40.201-7.565-60.302-1.805-14.39 8.914-27.345 23.391-28.211 6.849-.41 13.693-.647 20.528-.713 0 0 4.011 1.027 5.93 1.035 73.203.316 144.084 19.782 207.032 57.149 1.112.66 4.121 1.407 4.121 1.407 5.838 3.544 11.599 7.239 17.274 11.085 12.006 8.135 14.61 24.747 5.711 36.199-12.43 15.996-24.86 31.993-37.29 47.989-1.063 1.368-2.256 2.583-3.549 3.638 0 0-4.701 1.118-6.618 1.936-6.758 2.886-13.919 1.81-20.406-2.55z" fill="#ffc269"/><path d="m316.378 342.337 41.934-76.11c-65.38-39.69-140.602-60.342-217.082-59.592l-2.814 87.236c-.1 3.094-2.534 5.605-5.624 5.795-7.516.461-17.3 1.115-26.491 1.738 3.48 8.74 12.219 14.646 22.009 14.096 65.73-3.68 130.88 14.21 185.52 50.93 8.32 5.59 19.138 4.818 26.628-1.292-8.77-5.9-17.199-11.648-17.709-11.988-1.45-.975-2.908-1.936-4.373-2.884-2.643-1.712-3.518-5.17-1.998-7.929z" fill="#ffa95f"/><path d="m260.84 362.798c-27.193-12.328-56.43-21.037-86.106-24.319-7.789-.861-12.045-3.645-15.745-9.957-1.174-2.004-4.691-5.871-4.691-5.871-.461-1.969-.674-4.029-.605-6.145 1.213-37.571 2.426-75.142 3.639-112.713.52-16.1 14.552-28.414 30.582-26.827 4.057.402 8.107.858 12.147 1.37 0 0 6.565 4.61 9.397 5.024 36.714 5.367 70.799 12.336 105.021 26.354 1.022.419 4.051.578 4.051.578 4.965 2.105 9.895 4.301 14.788 6.587 14.594 6.819 20.373 24.571 12.601 38.681-18.138 32.925-36.275 65.85-54.413 98.776-1.437 2.609-3.297 4.84-5.45 6.652 0 0-3.054 1.07-4.406 1.812-6.393 3.504-13.697 3.222-20.81-.002z" fill="#ffc269"/><path d="m286.055 360.986c-6.84 5.76-16.635 7.304-25.255 3.394-27.19-12.33-56.16-20.28-85.84-23.56-10.26-1.14-18.412-8.57-20.662-18.17 12.5 1.28 24.242 2.47 24.592 2.51 30.64 3.62 60.41 11.9 88.52 24.65.58.27 9.995 6.006 18.645 11.176z" fill="#ffa95f"/><path d="m318.53 210.291c-.05.1-.11.199-.16.299-9.53 17.37-21.1 37.76-29.12 51.8-8.61 15.07-24.74 24.44-42.1 24.44-4.33 0-8.65-.58-12.84-1.74-21.36-5.86-36.02-25.42-35.65-47.57.28-16.12.741-39.465 1.401-59.185 40.78 5.16 80.639 15.926 118.469 31.956z" fill="#ffa95f"/><path d="m238.548 269.666c-14.307-3.927-24.136-17.04-23.887-31.874.286-17.024.746-39.822 1.401-59.127.512-15.097 14.009-26.376 28.969-24.283 16.105 2.253 31.799 6.561 46.797 12.845 13.932 5.838 19.779 22.426 12.512 35.67-9.293 16.935-20.536 36.773-28.98 51.557-7.359 12.881-22.505 19.139-36.812 15.212z" fill="#ffc269"/></g></g></g></svg>