<svg height="512" viewBox="0 0 512 512" width="512" xmlns="http://www.w3.org/2000/svg"><path d="m272 124a8 8 0 0 1 0-16 24 24 0 0 0 0-48 8 8 0 0 1 0-16 40 40 0 0 1 0 80z" fill="#aac3d7"/><path d="m112 124a8 8 0 0 1 0-16 24 24 0 0 0 0-48 8 8 0 0 1 0-16 40 40 0 0 1 0 80z" fill="#aac3d7"/><path d="m16 148h384a0 0 0 0 1 0 0v256a32 32 0 0 1 -32 32h-320a32 32 0 0 1 -32-32v-256a0 0 0 0 1 0 0z" fill="#aac3d7"/><path d="m16 148h336a0 0 0 0 1 0 0v256a32 32 0 0 1 -32 32h-272a32 32 0 0 1 -32-32v-256a0 0 0 0 1 0 0z" fill="#d7e6e6"/><path d="m48 84h320a32 32 0 0 1 32 32v32a0 0 0 0 1 0 0h-384a0 0 0 0 1 0 0v-32a32 32 0 0 1 32-32z" fill="#e13741"/><path d="m48 84h272a32 32 0 0 1 32 32v32a0 0 0 0 1 0 0h-336a0 0 0 0 1 0 0v-32a32 32 0 0 1 32-32z" fill="#f05555"/><path d="m112 124a40 40 0 0 1 0-80 8 8 0 0 1 0 16 24 24 0 0 0 0 48 8 8 0 0 1 0 16z" fill="#d7e6e6"/><path d="m272 124a40 40 0 0 1 0-80 8 8 0 0 1 0 16 24 24 0 0 0 0 48 8 8 0 0 1 0 16z" fill="#d7e6e6"/><path d="m142.667 404a28.032 28.032 0 0 1 -28-28v-40a28 28 0 0 1 56 0v40a28.032 28.032 0 0 1 -28 28zm0-80a12.013 12.013 0 0 0 -12 12v40a12 12 0 0 0 24 0v-40a12.013 12.013 0 0 0 -12-12z" fill="#f05555"/><g fill="#555"><path d="m70.667 180h-20a8 8 0 0 0 -8 8v80a8 8 0 0 0 8 8h20a27.987 27.987 0 0 0 19.577-48 27.987 27.987 0 0 0 -19.577-48zm0 80h-12v-24h12a12 12 0 1 1 0 24zm0-40h-12v-24h12a12 12 0 1 1 0 24z"/><path d="m142.667 180a28.032 28.032 0 0 0 -28 28v40a28 28 0 0 0 56 0v-40a28.032 28.032 0 0 0 -28-28zm12 68a12 12 0 0 1 -24 0v-40a12 12 0 0 1 24 0z"/><path d="m214.667 180a28.032 28.032 0 0 0 -28 28v40a28 28 0 0 0 56 0v-40a28.032 28.032 0 0 0 -28-28zm12 68a12 12 0 0 1 -24 0v-40a12 12 0 0 1 24 0z"/><path d="m314.667 204v-16a8 8 0 0 0 -16 0v16a16.018 16.018 0 0 1 -16 16h-8v-32a8 8 0 0 0 -16 0v80a8 8 0 0 0 16 0v-32h8a16.018 16.018 0 0 1 16 16v16a8 8 0 0 0 16 0v-16a31.936 31.936 0 0 0 -10.855-24 31.936 31.936 0 0 0 10.855-24z"/></g><path d="m90.665 404a8 8 0 0 1 -7.153-4.423l-24.845-49.69v46.113a8 8 0 0 1 -16 0v-80a8 8 0 0 1 15.155-3.578l24.845 49.69v-46.112a8 8 0 0 1 16 0v80a8 8 0 0 1 -8 8z" fill="#f05555"/><path d="m242.667 404a23.907 23.907 0 0 1 -16-6.126 23.988 23.988 0 0 1 -40-17.874v-64a8 8 0 0 1 16 0v64a8 8 0 0 0 16 0v-64a8 8 0 0 1 16 0v64a8 8 0 0 0 16 0v-64a8 8 0 0 1 16 0v64a24.027 24.027 0 0 1 -24 24z" fill="#f05555"/><circle cx="392" cy="364" fill="#6fa4d8" r="104"/><path d="m376 412a15.946 15.946 0 0 1 -11.313-4.686l-32-32a16 16 0 0 1 22.626-22.628l20.687 20.687 51.354-51.353a16 16 0 1 1 22.626 22.627l-62.667 62.667a15.948 15.948 0 0 1 -11.313 4.686z" fill="#d7e6e6"/></svg>